<svg width="709" height="381" viewBox="0 0 709 381" fill="none" xmlns="http://www.w3.org/2000/svg">
<path d="M120 79H592C600.837 79 608 86.1634 608 95V315C608 323.837 600.837 331 592 331H120C111.163 331 104 323.837 104 315V95C104 86.1635 111.163 79 120 79Z" fill="#85CCBB" stroke="#30A589" stroke-width="2"/>
<g filter="url(#filter0_d_1289_805)">
<rect x="16.7148" y="1" width="213" height="229" rx="12" transform="rotate(3.68392 16.7148 1)" fill="#FAF7EE"/>
<circle cx="116.154" cy="104.483" r="78.8809" transform="rotate(3.68392 116.154 104.483)" fill="#5DCA76"/>
<circle cx="116.513" cy="104.89" r="70.8396" transform="rotate(3.68392 116.513 104.89)" fill="#EFFCF2"/>
<path d="M82.3154 124.762L76.9067 124.414L79.2032 88.7458L67.7912 92.2678L68.1093 87.3269L84.6176 82.166L85.0562 82.1942L82.3154 124.762ZM128.505 111.384C128.33 114.093 127.864 116.48 127.104 118.545C126.346 120.591 125.337 122.287 124.076 123.635C122.813 125.002 121.311 126.001 119.567 126.632C117.824 127.264 115.861 127.509 113.678 127.369C111.514 127.229 109.598 126.744 107.929 125.912C106.262 125.061 104.881 123.867 103.786 122.328C102.688 120.829 101.895 119.016 101.406 116.891C100.917 114.745 100.761 112.318 100.935 109.609L101.577 99.6394C101.751 96.9302 102.217 94.5529 102.975 92.5075C103.735 90.4427 104.755 88.7273 106.037 87.3616C107.299 85.9945 108.802 84.9953 110.546 84.3638C112.31 83.7141 114.274 83.4589 116.437 83.5982C118.62 83.7387 120.535 84.2437 122.182 85.113C123.849 85.9641 125.231 87.1491 126.327 88.6679C127.404 90.1856 128.186 92.017 128.674 94.1621C129.164 96.2878 129.321 98.7053 129.147 101.415L128.505 111.384ZM106.443 108.877L123.838 97.2269C123.773 95.8135 123.57 94.5576 123.23 93.4593C122.91 92.3427 122.432 91.4019 121.797 90.6368C121.182 89.8535 120.399 89.2453 119.448 88.8122C118.517 88.3804 117.418 88.1237 116.151 88.0421C114.865 87.9593 113.711 88.0905 112.691 88.4358C111.691 88.7629 110.826 89.2846 110.095 90.0008C109.214 90.9031 108.521 92.1013 108.014 93.5952C107.527 95.0709 107.22 96.8028 107.092 98.7909L106.633 105.925C106.601 106.412 106.57 106.899 106.539 107.386C106.507 107.874 106.475 108.371 106.443 108.877ZM122.993 112.174L123.381 106.152C123.4 105.859 123.436 105.304 123.489 104.485C123.542 103.647 123.587 102.955 123.622 102.409L106.259 114.003C106.343 115.437 106.574 116.715 106.952 117.835C107.331 118.936 107.859 119.86 108.535 120.608C109.155 121.314 109.921 121.872 110.834 122.283C111.749 122.675 112.79 122.908 113.96 122.983C115.188 123.062 116.291 122.947 117.27 122.639C118.249 122.33 119.092 121.846 119.8 121.187C120.758 120.29 121.492 119.084 122 117.571C122.528 116.059 122.859 114.26 122.993 112.174ZM164.466 113.699C164.291 116.409 163.824 118.796 163.065 120.861C162.307 122.906 161.297 124.602 160.036 125.95C158.774 127.317 157.271 128.316 155.528 128.948C153.784 129.579 151.821 129.825 149.638 129.684C147.475 129.545 145.559 129.059 143.89 128.228C142.222 127.377 140.841 126.182 139.746 124.644C138.649 123.144 137.856 121.332 137.366 119.206C136.878 117.061 136.721 114.634 136.896 111.924L137.538 101.955C137.712 99.2455 138.178 96.8682 138.936 94.8229C139.695 92.758 140.716 91.0427 141.998 89.6769C143.26 88.3099 144.763 87.3106 146.506 86.6791C148.27 86.0294 150.234 85.7742 152.398 85.9135C154.581 86.0541 156.496 86.559 158.142 87.4283C159.81 88.2794 161.192 89.4644 162.288 90.9833C163.364 92.5009 164.147 94.3323 164.635 96.4775C165.124 98.6032 165.282 101.021 165.107 103.73L164.466 113.699ZM142.403 111.193L159.799 99.5422C159.734 98.1289 159.531 96.873 159.19 95.7746C158.871 94.658 158.393 93.7172 157.757 92.9521C157.142 92.1688 156.36 91.5606 155.409 91.1275C154.478 90.6957 153.379 90.439 152.112 90.3574C150.825 90.2746 149.672 90.4059 148.651 90.7512C147.652 91.0782 146.786 91.5999 146.055 92.3161C145.175 93.2185 144.482 94.4166 143.974 95.9105C143.488 97.3862 143.181 99.1181 143.053 101.106L142.593 108.24C142.562 108.727 142.531 109.214 142.499 109.702C142.468 110.189 142.436 110.686 142.403 111.193ZM158.954 114.49L159.342 108.467C159.361 108.174 159.396 107.619 159.449 106.8C159.503 105.962 159.548 105.27 159.583 104.725L142.22 116.319C142.304 117.753 142.535 119.03 142.913 120.15C143.292 121.251 143.82 122.176 144.496 122.924C145.116 123.629 145.882 124.187 146.795 124.598C147.709 124.99 148.751 125.223 149.921 125.299C151.149 125.378 152.252 125.263 153.231 124.954C154.21 124.645 155.053 124.161 155.761 123.502C156.719 122.605 157.452 121.4 157.961 119.886C158.489 118.374 158.82 116.575 158.954 114.49Z" fill="#62C976"/>
<path d="M43.2299 203.642L43.3564 201.678L47.883 201.969C48.5057 202.01 49.0648 201.917 49.5603 201.693C50.0717 201.469 50.478 201.134 50.7793 200.689C51.0965 200.244 51.2756 199.703 51.3168 199.064C51.3579 198.425 51.2497 197.865 50.9921 197.384C50.7504 196.903 50.3904 196.519 49.9118 196.232C49.4493 195.946 48.9066 195.782 48.2839 195.742L43.7573 195.451L43.8838 193.487L48.5541 193.788C49.576 193.853 50.4727 194.12 51.2443 194.586C52.0319 195.054 52.6326 195.686 53.0463 196.482C53.4769 197.263 53.6589 198.173 53.5921 199.211C53.5263 200.232 53.2292 201.111 52.7008 201.847C52.1895 202.567 51.5128 203.117 50.6707 203.496C49.8456 203.859 48.9221 204.008 47.9003 203.943L43.2299 203.642ZM41.3047 210.011L42.3749 193.39L44.6262 193.535L43.556 210.156L41.3047 210.011ZM60.0449 211.459C58.9112 211.386 57.9058 211.064 57.0286 210.495C56.1524 209.909 55.4796 209.152 55.0103 208.224C54.5409 207.296 54.3428 206.265 54.4158 205.132C54.4877 204.014 54.808 203.025 55.3765 202.163C55.9609 201.303 56.7087 200.646 57.6198 200.191C58.5479 199.722 59.5628 199.523 60.6645 199.594C61.7183 199.662 62.629 199.961 63.3965 200.491C64.1799 201.023 64.768 201.726 65.1606 202.601C65.5691 203.477 65.739 204.45 65.6701 205.52C65.6598 205.679 65.6405 205.854 65.6122 206.045C65.5849 206.22 65.5396 206.425 65.4763 206.662L55.8722 206.043L55.9879 204.247L64.4423 204.791L63.6073 205.435C63.6566 204.669 63.5625 204.013 63.325 203.469C63.0885 202.908 62.732 202.469 62.2556 202.149C61.7801 201.814 61.1911 201.624 60.4886 201.579C59.7541 201.531 59.0972 201.649 58.5178 201.933C57.9384 202.216 57.4785 202.635 57.1381 203.191C56.7977 203.746 56.6023 204.415 56.552 205.197C56.5006 205.995 56.615 206.708 56.8953 207.336C57.1766 207.947 57.6018 208.439 58.171 208.813C58.7412 209.17 59.4095 209.373 60.176 209.423C60.8146 209.464 61.4046 209.39 61.9459 209.2C62.5032 209.011 62.9878 208.706 63.3998 208.284L64.698 209.786C64.114 210.39 63.412 210.834 62.5921 211.117C61.7881 211.402 60.939 211.516 60.0449 211.459ZM67.6318 211.707L68.3643 200.33L70.5198 200.469L69.7873 211.845L67.6318 211.707ZM70.2052 205.355L69.4141 204.943C69.5076 203.49 69.9174 202.354 70.6436 201.535C71.3697 200.716 72.3635 200.347 73.6248 200.428C74.1997 200.465 74.7119 200.602 75.1616 200.84C75.6123 201.061 76.0223 201.416 76.3917 201.905L74.8845 203.275C74.6615 203.004 74.4098 202.804 74.1296 202.673C73.8494 202.543 73.5177 202.466 73.1345 202.441C72.3362 202.39 71.6651 202.603 71.1212 203.081C70.5774 203.559 70.2721 204.317 70.2052 205.355ZM78.8266 212.427L79.6685 199.35C79.723 198.504 79.9539 197.781 80.3613 197.182C80.7696 196.567 81.305 196.097 81.9673 195.771C82.6456 195.446 83.4158 195.311 84.278 195.366C84.9327 195.408 85.4923 195.557 85.9569 195.811C86.4215 196.065 86.8396 196.421 87.211 196.878L85.7085 198.176C85.5153 197.939 85.2946 197.757 85.0463 197.628C84.799 197.484 84.4918 197.4 84.1246 197.377C83.438 197.332 82.8902 197.498 82.4813 197.872C82.0884 198.248 81.8693 198.787 81.8241 199.489L80.9821 212.566L78.8266 212.427ZM76.6304 202.834L76.7568 200.87L85.3311 201.422L85.2046 203.386L76.6304 202.834ZM91.291 213.47C90.1733 213.398 89.1843 213.07 88.3241 212.486C87.4639 211.901 86.7991 211.145 86.3298 210.217C85.8615 209.273 85.6633 208.242 85.7353 207.124C85.8062 206.023 86.1334 205.05 86.7168 204.205C87.3013 203.345 88.0576 202.68 88.9857 202.211C89.9137 201.742 90.9366 201.543 92.0543 201.615C93.156 201.686 94.137 202.013 94.9972 202.598C95.8744 203.168 96.5477 203.916 97.0171 204.844C97.4864 205.772 97.6856 206.787 97.6147 207.889C97.5427 209.007 97.214 210.004 96.6285 210.88C96.044 211.74 95.2797 212.404 94.3357 212.873C93.4076 213.342 92.3927 213.541 91.291 213.47ZM91.4251 211.387C92.1437 211.433 92.7931 211.306 93.3736 211.007C93.954 210.708 94.4224 210.281 94.7787 209.727C95.1361 209.156 95.339 208.496 95.3873 207.746C95.4346 207.011 95.3091 206.346 95.0108 205.749C94.7284 205.154 94.3181 204.679 93.7798 204.323C93.2586 203.953 92.6387 203.745 91.9201 203.699C91.2016 203.652 90.5522 203.779 89.9717 204.078C89.3923 204.361 88.9245 204.78 88.5681 205.335C88.2118 205.889 88.0099 206.533 87.9626 207.268C87.9143 208.018 88.0308 208.699 88.3121 209.31C88.5945 209.906 89.0042 210.389 89.5415 210.76C90.0788 211.132 90.7066 211.34 91.4251 211.387ZM99.6748 213.77L100.407 202.393L102.563 202.532L101.83 213.908L99.6748 213.77ZM102.248 207.418L101.457 207.006C101.551 205.553 101.96 204.417 102.687 203.598C103.413 202.779 104.406 202.41 105.668 202.491C106.243 202.528 106.755 202.666 107.205 202.903C107.655 203.124 108.065 203.479 108.435 203.968L106.928 205.338C106.705 205.067 106.453 204.867 106.173 204.736C105.892 204.606 105.561 204.529 105.178 204.504C104.379 204.453 103.708 204.666 103.164 205.144C102.62 205.622 102.315 206.38 102.248 207.418ZM109.335 214.392L110.067 203.015L112.223 203.154L111.49 214.53L109.335 214.392ZM117.023 214.887L117.465 208.013C117.52 207.167 117.299 206.487 116.803 205.974C116.324 205.446 115.693 205.157 114.911 205.107C114.384 205.073 113.905 205.154 113.476 205.351C113.046 205.548 112.691 205.838 112.41 206.22C112.129 206.603 111.97 207.074 111.934 207.633L111.076 207.144C111.131 206.282 111.363 205.544 111.772 204.929C112.196 204.315 112.747 203.853 113.424 203.544C114.102 203.219 114.849 203.082 115.663 203.135C116.461 203.186 117.168 203.408 117.784 203.801C118.416 204.194 118.896 204.722 119.222 205.384C119.564 206.048 119.707 206.818 119.65 207.697L119.178 215.025L117.023 214.887ZM124.711 215.382L125.153 208.508C125.208 207.662 124.987 206.982 124.491 206.469C124.012 205.941 123.389 205.653 122.623 205.603C122.096 205.569 121.61 205.65 121.164 205.846C120.735 206.043 120.379 206.333 120.098 206.715C119.817 207.098 119.658 207.569 119.622 208.128L118.429 207.618C118.533 206.743 118.813 206.007 119.268 205.411C119.74 204.8 120.323 204.341 121.016 204.033C121.71 203.709 122.457 203.572 123.255 203.624C124.085 203.677 124.817 203.901 125.449 204.294C126.081 204.687 126.568 205.216 126.91 205.879C127.268 206.544 127.418 207.323 127.36 208.217L126.89 215.522L124.711 215.382ZM134.646 216.262C133.608 216.195 132.682 215.879 131.869 215.313C131.057 214.732 130.432 213.978 129.995 213.052C129.573 212.127 129.398 211.106 129.47 209.988C129.542 208.871 129.847 207.88 130.383 207.017C130.936 206.154 131.644 205.487 132.508 205.013C133.388 204.541 134.355 204.338 135.409 204.406C136.271 204.462 137.026 204.695 137.673 205.105C138.337 205.501 138.856 206.031 139.23 206.696C139.605 207.346 139.79 208.087 139.784 208.921L139.564 212.346C139.463 213.157 139.185 213.868 138.729 214.48C138.289 215.093 137.713 215.561 137.003 215.884C136.31 216.192 135.524 216.318 134.646 216.262ZM135.136 214.249C136.206 214.318 137.091 214.014 137.792 213.338C138.494 212.646 138.882 211.733 138.955 210.599C139.005 209.816 138.897 209.128 138.631 208.534C138.381 207.924 137.995 207.443 137.473 207.088C136.952 206.718 136.332 206.51 135.613 206.464C134.895 206.417 134.245 206.544 133.665 206.843C133.101 207.144 132.64 207.579 132.282 208.149C131.942 208.704 131.748 209.357 131.699 210.108C131.65 210.874 131.758 211.562 132.023 212.173C132.306 212.768 132.715 213.251 133.253 213.623C133.79 213.994 134.418 214.203 135.136 214.249ZM138.445 216.266L138.643 213.2L139.229 210.448L138.999 207.668L139.178 204.889L141.357 205.03L140.625 216.406L138.445 216.266ZM151.811 217.126L152.238 210.492C152.293 209.63 152.068 208.902 151.561 208.308C151.054 207.714 150.369 207.39 149.507 207.334C148.932 207.297 148.413 207.392 147.949 207.619C147.486 207.845 147.112 208.174 146.828 208.605C146.544 209.035 146.383 209.538 146.346 210.113L145.492 209.553C145.548 208.691 145.789 207.936 146.215 207.291C146.641 206.645 147.21 206.152 147.921 205.813C148.634 205.458 149.421 205.308 150.283 205.364C151.145 205.419 151.89 205.684 152.517 206.157C153.16 206.631 153.65 207.232 153.988 207.959C154.327 208.671 154.471 209.417 154.421 210.2L153.966 217.265L151.811 217.126ZM143.763 216.608L144.496 205.232L146.651 205.371L145.919 216.747L143.763 216.608ZM162.066 218.027C160.949 217.955 159.952 217.626 159.076 217.041C158.215 216.457 157.55 215.7 157.081 214.772C156.629 213.829 156.438 212.807 156.509 211.705C156.581 210.587 156.901 209.598 157.47 208.737C158.054 207.876 158.81 207.22 159.737 206.766C160.681 206.298 161.712 206.1 162.83 206.172C163.708 206.228 164.511 206.448 165.24 206.832C165.97 207.2 166.586 207.712 167.089 208.37L165.56 209.714C165.235 209.277 164.824 208.938 164.326 208.697C163.846 208.442 163.302 208.294 162.695 208.255C161.977 208.209 161.327 208.336 160.747 208.635C160.168 208.918 159.7 209.337 159.343 209.891C158.987 210.446 158.785 211.098 158.736 211.848C158.688 212.599 158.805 213.272 159.087 213.867C159.37 214.463 159.78 214.946 160.317 215.317C160.854 215.688 161.482 215.897 162.2 215.944C162.807 215.983 163.365 215.914 163.873 215.739C164.398 215.548 164.858 215.257 165.252 214.865L166.573 216.393C166.007 216.966 165.33 217.396 164.542 217.682C163.77 217.969 162.945 218.084 162.066 218.027ZM173.622 218.771C172.489 218.698 171.483 218.377 170.606 217.807C169.73 217.222 169.057 216.465 168.588 215.537C168.118 214.609 167.92 213.578 167.993 212.444C168.065 211.327 168.385 210.337 168.954 209.476C169.538 208.616 170.286 207.959 171.197 207.504C172.125 207.035 173.14 206.836 174.242 206.907C175.296 206.974 176.206 207.273 176.974 207.804C177.757 208.335 178.345 209.039 178.738 209.914C179.146 210.79 179.316 211.763 179.247 212.832C179.237 212.992 179.218 213.167 179.19 213.358C179.162 213.532 179.117 213.738 179.054 213.974L169.45 213.356L169.565 211.56L178.02 212.104L177.185 212.748C177.234 211.981 177.14 211.326 176.902 210.781C176.666 210.221 176.309 209.781 175.833 209.462C175.357 209.127 174.768 208.937 174.066 208.891C173.331 208.844 172.675 208.962 172.095 209.245C171.516 209.529 171.056 209.948 170.715 210.503C170.375 211.059 170.18 211.727 170.129 212.51C170.078 213.308 170.192 214.021 170.473 214.648C170.754 215.26 171.179 215.752 171.748 216.125C172.319 216.483 172.987 216.686 173.753 216.735C174.392 216.777 174.982 216.702 175.523 216.513C176.081 216.324 176.565 216.019 176.977 215.596L178.275 217.099C177.691 217.702 176.989 218.146 176.169 218.43C175.365 218.715 174.516 218.829 173.622 218.771Z" fill="#4B8879"/>
</g>
<g filter="url(#filter1_d_1289_805)">
<rect x="250" y="149.494" width="213" height="229" rx="12" transform="rotate(-2.01621 250 149.494)" fill="#FAF7EE"/>
<circle cx="359.224" cy="242.59" r="78.8809" transform="rotate(-2.01621 359.224 242.59)" fill="#5DCA76"/>
<circle cx="359.62" cy="242.96" r="70.8396" transform="rotate(-2.01621 359.62 242.96)" fill="#EFFCF2"/>
<path d="M327.57 266.129L322.153 266.32L320.896 230.6L309.89 235.238L309.716 230.29L325.63 223.515L326.069 223.499L327.57 266.129ZM372.202 248.229C372.297 250.942 372.07 253.364 371.52 255.494C370.968 257.605 370.132 259.393 369.011 260.859C367.891 262.345 366.495 263.488 364.823 264.29C363.151 265.091 361.222 265.531 359.036 265.608C356.869 265.684 354.914 265.391 353.171 264.729C351.427 264.048 349.934 262.997 348.692 261.574C347.451 260.192 346.482 258.467 345.784 256.4C345.085 254.314 344.688 251.914 344.592 249.201L344.241 239.217C344.145 236.504 344.373 234.092 344.924 231.982C345.474 229.852 346.319 228.043 347.459 226.557C348.58 225.071 349.976 223.928 351.648 223.126C353.339 222.305 355.267 221.856 357.434 221.779C359.62 221.702 361.576 222.015 363.301 222.716C365.045 223.397 366.537 224.439 367.779 225.842C369.001 227.245 369.961 228.99 370.66 231.076C371.358 233.142 371.755 235.532 371.85 238.245L372.202 248.229ZM350 247.926L366.152 234.606C365.947 233.206 365.62 231.976 365.172 230.917C364.744 229.838 364.175 228.949 363.466 228.251C362.776 227.533 361.937 227.005 360.948 226.669C359.979 226.331 358.859 226.185 357.591 226.23C356.302 226.275 355.168 226.52 354.187 226.965C353.225 227.39 352.415 227.995 351.759 228.78C350.973 229.766 350.402 231.027 350.045 232.564C349.708 234.08 349.574 235.834 349.644 237.825L349.896 244.969C349.913 245.457 349.93 245.945 349.947 246.433C349.964 246.921 349.982 247.419 350 247.926ZM366.796 249.563L366.584 243.531C366.574 243.239 366.554 242.682 366.525 241.863C366.496 241.023 366.471 240.33 366.452 239.784L350.327 253.045C350.552 254.464 350.909 255.712 351.396 256.789C351.883 257.847 352.5 258.714 353.247 259.391C353.934 260.032 354.752 260.511 355.701 260.829C356.65 261.128 357.71 261.257 358.881 261.216C360.111 261.173 361.197 260.949 362.141 260.544C363.084 260.14 363.875 259.574 364.514 258.848C365.378 257.86 365.988 256.588 366.344 255.031C366.719 253.474 366.87 251.651 366.796 249.563ZM408.215 246.962C408.31 249.675 408.083 252.096 407.532 254.226C406.981 256.337 406.145 258.125 405.024 259.591C403.904 261.077 402.508 262.221 400.836 263.022C399.164 263.824 397.235 264.263 395.048 264.34C392.882 264.416 390.927 264.123 389.184 263.462C387.44 262.78 385.947 261.729 384.705 260.307C383.464 258.924 382.495 257.199 381.796 255.132C381.098 253.046 380.7 250.647 380.605 247.934L380.253 237.949C380.158 235.236 380.386 232.824 380.937 230.714C381.487 228.584 382.332 226.776 383.472 225.289C384.592 223.804 385.989 222.66 387.661 221.859C389.352 221.037 391.28 220.588 393.447 220.512C395.633 220.435 397.589 220.747 399.314 221.448C401.057 222.13 402.55 223.171 403.792 224.574C405.014 225.977 405.974 227.722 406.673 229.808C407.371 231.874 407.768 234.264 407.863 236.977L408.215 246.962ZM386.013 246.658L402.165 233.338C401.96 231.938 401.633 230.708 401.185 229.649C400.756 228.57 400.188 227.681 399.479 226.983C398.789 226.265 397.95 225.737 396.961 225.401C395.991 225.064 394.872 224.917 393.604 224.962C392.315 225.007 391.181 225.252 390.2 225.697C389.237 226.122 388.428 226.727 387.772 227.512C386.986 228.498 386.414 229.759 386.058 231.296C385.721 232.813 385.587 234.566 385.657 236.557L385.908 243.701C385.926 244.189 385.943 244.677 385.96 245.165C385.977 245.653 385.995 246.151 386.013 246.658ZM402.809 248.295L402.597 242.264C402.586 241.971 402.567 241.415 402.538 240.595C402.508 239.755 402.484 239.063 402.465 238.516L386.339 251.777C386.565 253.196 386.922 254.444 387.409 255.521C387.896 256.579 388.513 257.446 389.26 258.124C389.947 258.764 390.765 259.243 391.714 259.562C392.663 259.86 393.723 259.989 394.894 259.948C396.124 259.905 397.21 259.681 398.153 259.276C399.097 258.872 399.888 258.306 400.527 257.58C401.391 256.592 402.001 255.32 402.357 253.764C402.732 252.207 402.883 250.384 402.809 248.295Z" fill="#62C976"/>
<path d="M300.002 354.862L306.228 337.977L307.859 337.919L315.233 354.326L312.786 354.412L306.702 340.53L307.541 340.5L302.4 354.778L300.002 354.862ZM303.107 350.983L303.038 349.016L311.793 348.708L311.862 350.674L303.107 350.983ZM322.029 354.327C320.91 354.366 319.885 354.138 318.955 353.643C318.041 353.147 317.305 352.46 316.745 351.583C316.202 350.69 315.91 349.691 315.871 348.588C315.832 347.469 316.052 346.452 316.533 345.539C317.029 344.625 317.716 343.896 318.593 343.353C319.486 342.793 320.492 342.494 321.611 342.454C322.491 342.423 323.312 342.563 324.075 342.872C324.838 343.165 325.502 343.614 326.068 344.219L324.68 345.708C324.313 345.305 323.87 345.008 323.351 344.819C322.848 344.612 322.292 344.52 321.685 344.541C320.965 344.566 320.331 344.757 319.784 345.112C319.235 345.452 318.811 345.915 318.512 346.502C318.212 347.089 318.076 347.758 318.102 348.51C318.129 349.261 318.312 349.919 318.652 350.483C318.992 351.048 319.448 351.488 320.019 351.804C320.591 352.12 321.236 352.266 321.956 352.24C322.563 352.219 323.111 352.096 323.6 351.87C324.103 351.628 324.532 351.293 324.885 350.864L326.351 352.254C325.845 352.88 325.214 353.374 324.458 353.737C323.718 354.099 322.909 354.296 322.029 354.327ZM333.53 353.922C332.411 353.962 331.386 353.733 330.456 353.238C329.542 352.742 328.805 352.055 328.246 351.178C327.702 350.285 327.411 349.287 327.372 348.183C327.333 347.064 327.553 346.048 328.033 345.134C328.529 344.22 329.216 343.491 330.094 342.948C330.986 342.388 331.993 342.089 333.112 342.049C333.991 342.019 334.813 342.158 335.576 342.467C336.339 342.76 337.003 343.209 337.569 343.814L336.18 345.304C335.814 344.9 335.371 344.604 334.852 344.414C334.349 344.207 333.793 344.115 333.185 344.136C332.466 344.162 331.832 344.352 331.284 344.707C330.736 345.047 330.312 345.51 330.012 346.097C329.713 346.684 329.576 347.353 329.603 348.105C329.629 348.856 329.812 349.514 330.153 350.079C330.493 350.643 330.948 351.083 331.52 351.399C332.091 351.715 332.737 351.861 333.456 351.835C334.064 351.814 334.612 351.691 335.1 351.465C335.604 351.223 336.033 350.888 336.386 350.459L337.852 351.849C337.345 352.475 336.714 352.969 335.959 353.332C335.219 353.695 334.409 353.891 333.53 353.922ZM345.102 353.515C343.967 353.555 342.935 353.335 342.005 352.855C341.075 352.36 340.331 351.673 339.772 350.797C339.212 349.92 338.913 348.914 338.873 347.778C338.833 346.659 339.054 345.643 339.534 344.729C340.03 343.815 340.709 343.087 341.57 342.544C342.447 341.985 343.437 341.686 344.541 341.647C345.596 341.61 346.532 341.817 347.348 342.269C348.181 342.72 348.836 343.361 349.313 344.193C349.807 345.024 350.072 345.975 350.11 347.047C350.116 347.206 350.114 347.383 350.105 347.575C350.095 347.752 350.07 347.961 350.031 348.202L340.413 348.541L340.349 346.742L348.816 346.444L348.049 347.167C348.022 346.4 347.863 345.757 347.573 345.239C347.282 344.705 346.883 344.302 346.378 344.032C345.871 343.746 345.266 343.615 344.563 343.64C343.827 343.665 343.185 343.848 342.637 344.188C342.088 344.527 341.672 344.99 341.389 345.576C341.105 346.163 340.977 346.848 341.005 347.631C341.033 348.431 341.218 349.129 341.559 349.725C341.9 350.305 342.372 350.753 342.975 351.068C343.578 351.367 344.263 351.503 345.031 351.476C345.67 351.453 346.25 351.321 346.77 351.079C347.306 350.836 347.757 350.483 348.125 350.022L349.566 351.388C349.045 352.047 348.391 352.558 347.603 352.922C346.831 353.286 345.998 353.483 345.102 353.515ZM356.307 353.12C355.667 353.143 355.057 353.084 354.475 352.945C353.91 352.788 353.381 352.567 352.891 352.28C352.4 351.977 351.971 351.616 351.604 351.197L352.946 349.756C353.38 350.253 353.873 350.62 354.426 350.857C354.978 351.078 355.59 351.176 356.261 351.153C356.933 351.129 357.449 350.999 357.809 350.762C358.168 350.509 358.34 350.175 358.326 349.759C358.311 349.343 358.148 349.029 357.836 348.816C357.54 348.586 357.157 348.407 356.689 348.28C356.219 348.136 355.718 348.002 355.186 347.876C354.668 347.735 354.174 347.552 353.701 347.328C353.229 347.105 352.834 346.791 352.515 346.385C352.213 345.98 352.05 345.433 352.025 344.746C352.001 344.058 352.148 343.461 352.467 342.953C352.784 342.43 353.234 342.022 353.816 341.729C354.414 341.436 355.137 341.274 355.985 341.244C356.88 341.213 357.677 341.345 358.376 341.64C359.09 341.919 359.682 342.363 360.152 342.971L358.81 344.411C358.475 344.006 358.064 343.701 357.577 343.494C357.105 343.286 356.574 343.193 355.982 343.214C355.358 343.236 354.883 343.364 354.555 343.6C354.242 343.819 354.093 344.121 354.106 344.504C354.12 344.888 354.274 345.179 354.569 345.377C354.864 345.574 355.246 345.737 355.715 345.865C356.2 345.992 356.701 346.126 357.218 346.268C357.735 346.394 358.23 346.577 358.702 346.816C359.175 347.056 359.563 347.386 359.866 347.808C360.185 348.229 360.357 348.791 360.382 349.495C360.419 350.566 360.065 351.427 359.32 352.078C358.59 352.728 357.586 353.075 356.307 353.12ZM366.543 352.76C365.903 352.782 365.293 352.724 364.711 352.584C364.145 352.428 363.617 352.207 363.127 351.92C362.636 351.617 362.207 351.256 361.84 350.836L363.182 349.396C363.616 349.893 364.109 350.26 364.662 350.497C365.214 350.717 365.826 350.816 366.497 350.792C367.169 350.769 367.685 350.638 368.045 350.402C368.404 350.149 368.576 349.815 368.562 349.399C368.547 348.983 368.384 348.669 368.072 348.455C367.776 348.226 367.393 348.047 366.925 347.92C366.455 347.776 365.954 347.641 365.421 347.516C364.904 347.374 364.409 347.192 363.937 346.968C363.465 346.744 363.07 346.43 362.751 346.025C362.449 345.62 362.285 345.073 362.261 344.385C362.237 343.698 362.384 343.1 362.702 342.593C363.02 342.069 363.47 341.661 364.052 341.369C364.65 341.075 365.373 340.914 366.221 340.884C367.116 340.852 367.913 340.984 368.612 341.28C369.326 341.559 369.918 342.003 370.388 342.61L369.046 344.05C368.711 343.646 368.3 343.34 367.813 343.133C367.341 342.926 366.809 342.832 366.218 342.853C365.594 342.875 365.118 343.004 364.791 343.24C364.478 343.459 364.329 343.76 364.342 344.144C364.356 344.528 364.51 344.819 364.805 345.016C365.1 345.214 365.482 345.377 365.951 345.504C366.436 345.631 366.937 345.766 367.454 345.908C367.971 346.034 368.466 346.216 368.938 346.456C369.411 346.695 369.799 347.026 370.102 347.447C370.421 347.868 370.593 348.431 370.618 349.134C370.655 350.206 370.301 351.067 369.556 351.717C368.826 352.367 367.822 352.715 366.543 352.76ZM373.172 352.286L372.771 340.893L374.93 340.817L375.331 352.21L373.172 352.286ZM373.77 338.577C373.37 338.591 373.038 338.475 372.773 338.228C372.508 337.965 372.368 337.634 372.354 337.234C372.341 336.85 372.457 336.526 372.704 336.261C372.95 335.98 373.273 335.833 373.673 335.819C374.073 335.805 374.405 335.929 374.671 336.192C374.936 336.439 375.075 336.754 375.088 337.138C375.102 337.537 374.986 337.878 374.74 338.158C374.493 338.423 374.17 338.563 373.77 338.577ZM384.517 352.127C383.653 352.158 382.864 352.009 382.148 351.682C381.447 351.339 380.878 350.854 380.44 350.229C380.001 349.604 379.744 348.885 379.667 348.071L379.546 344.641C379.565 343.808 379.771 343.073 380.165 342.434C380.574 341.779 381.117 341.264 381.792 340.888C382.482 340.496 383.251 340.284 384.099 340.255C385.138 340.218 386.083 340.449 386.933 340.947C387.799 341.445 388.488 342.133 388.999 343.012C389.51 343.89 389.785 344.889 389.825 346.009C389.864 347.128 389.66 348.144 389.212 349.056C388.763 349.968 388.125 350.703 387.296 351.261C386.483 351.802 385.556 352.091 384.517 352.127ZM384.085 350.101C384.805 350.076 385.431 349.886 385.962 349.531C386.494 349.176 386.91 348.705 387.209 348.118C387.508 347.515 387.644 346.83 387.617 346.062C387.591 345.311 387.407 344.645 387.067 344.064C386.726 343.484 386.278 343.044 385.723 342.743C385.168 342.426 384.538 342.28 383.835 342.305C383.115 342.33 382.49 342.521 381.958 342.875C381.425 343.214 381.018 343.685 380.735 344.287C380.452 344.89 380.324 345.575 380.351 346.342C380.377 347.094 380.545 347.76 380.853 348.342C381.177 348.907 381.617 349.347 382.173 349.664C382.744 349.98 383.382 350.126 384.085 350.101ZM378.512 352.098L377.909 334.973L380.068 334.897L380.368 343.412L380.057 346.184L380.563 348.952L380.671 352.022L378.512 352.098ZM392.496 351.606L392.095 340.213L394.254 340.137L394.655 351.53L392.496 351.606ZM393.094 337.897C392.694 337.911 392.362 337.794 392.097 337.547C391.832 337.285 391.692 336.953 391.678 336.554C391.665 336.17 391.781 335.846 392.028 335.581C392.274 335.3 392.597 335.152 392.997 335.138C393.397 335.124 393.729 335.249 393.995 335.511C394.26 335.758 394.399 336.074 394.412 336.457C394.426 336.857 394.31 337.197 394.064 337.478C393.817 337.743 393.494 337.883 393.094 337.897ZM397.836 351.418L397.233 334.293L399.392 334.217L399.995 351.342L397.836 351.418ZM403.177 351.23L402.776 339.837L404.935 339.761L405.336 351.154L403.177 351.23ZM403.775 337.521C403.375 337.535 403.043 337.418 402.778 337.171C402.513 336.909 402.373 336.577 402.359 336.178C402.345 335.794 402.462 335.47 402.709 335.205C402.955 334.924 403.278 334.776 403.678 334.762C404.078 334.748 404.41 334.873 404.676 335.135C404.941 335.382 405.08 335.698 405.093 336.081C405.107 336.481 404.991 336.821 404.745 337.102C404.498 337.367 404.175 337.507 403.775 337.521ZM410.268 350.98L409.699 334.815L411.857 334.739L412.427 350.904L410.268 350.98ZM407.13 341.653L407.061 339.686L414.832 339.413L414.901 341.38L407.13 341.653ZM421.092 350.695L415.747 339.381L418.146 339.296L422.132 348.161L421.364 348.188L424.909 339.058L427.308 338.974L422.388 350.65L421.092 350.695ZM417.995 355.487L421.111 348.485L422.388 350.65L420.394 355.403L417.995 355.487Z" fill="#4B8879"/>
</g>
<g filter="url(#filter2_d_1289_805)">
<rect x="481" y="13.7979" width="213" height="229" rx="12" transform="rotate(-3.44458 481 13.7979)" fill="#FAF7EE"/>
<circle cx="592.509" cy="104.143" r="78.8809" transform="rotate(-3.44458 592.509 104.143)" fill="#5DCA76"/>
<circle cx="592.913" cy="104.501" r="70.8396" transform="rotate(-3.44458 592.913 104.501)" fill="#EFFCF2"/>
<path d="M561.451 128.463L556.041 128.789L553.894 93.1112L543.007 98.0223L542.709 93.08L558.45 85.9104L558.888 85.884L561.451 128.463ZM605.623 109.457C605.787 112.166 605.62 114.593 605.122 116.736C604.624 118.86 603.833 120.668 602.749 122.162C601.666 123.675 600.299 124.853 598.647 125.696C596.996 126.539 595.078 127.026 592.895 127.158C590.73 127.288 588.769 127.044 587.01 126.426C585.25 125.788 583.731 124.774 582.454 123.384C581.179 122.032 580.166 120.332 579.417 118.283C578.666 116.215 578.21 113.826 578.046 111.116L577.446 101.144C577.283 98.4343 577.451 96.0175 577.949 93.8939C578.446 91.7508 579.246 89.9221 580.348 88.4078C581.431 86.8947 582.798 85.7167 584.45 84.8737C586.12 84.0101 588.037 83.5132 590.201 83.3829C592.384 83.2515 594.347 83.5149 596.089 84.1731C597.849 84.8107 599.368 85.8151 600.644 87.1862C601.9 88.5585 602.904 90.2786 603.654 92.3466C604.404 94.3952 604.86 96.7744 605.023 99.4843L605.623 109.457ZM583.421 109.707L599.236 95.9878C598.996 94.5935 598.639 93.3725 598.165 92.3249C597.709 91.2566 597.118 90.3823 596.393 89.702C595.685 89.0011 594.833 88.4947 593.836 88.183C592.858 87.87 591.736 87.7517 590.468 87.828C589.182 87.9054 588.054 88.1788 587.084 88.6481C586.133 89.0967 585.339 89.7217 584.702 90.5231C583.941 91.5277 583.401 92.8026 583.083 94.348C582.784 95.8726 582.694 97.6292 582.813 99.6178L583.243 106.753C583.272 107.241 583.302 107.728 583.331 108.216C583.36 108.703 583.39 109.2 583.421 109.707ZM600.253 110.924L599.89 104.9C599.873 104.608 599.839 104.052 599.79 103.233C599.739 102.395 599.698 101.703 599.665 101.157L583.875 114.816C584.136 116.229 584.524 117.467 585.038 118.532C585.551 119.577 586.189 120.429 586.953 121.088C587.655 121.711 588.485 122.169 589.442 122.464C590.398 122.739 591.461 122.841 592.63 122.771C593.859 122.697 594.939 122.446 595.872 122.018C596.805 121.59 597.582 121.005 598.203 120.264C599.042 119.254 599.62 117.967 599.937 116.403C600.273 114.837 600.378 113.01 600.253 110.924ZM641.594 107.291C641.757 110.001 641.59 112.428 641.093 114.571C640.594 116.695 639.803 118.503 638.719 119.997C637.636 121.51 636.269 122.688 634.617 123.531C632.966 124.374 631.048 124.861 628.865 124.992C626.701 125.123 624.739 124.879 622.98 124.261C621.22 123.623 619.701 122.609 618.424 121.218C617.149 119.867 616.137 118.167 615.387 116.118C614.636 114.05 614.18 111.661 614.017 108.951L613.416 98.9791C613.253 96.2692 613.421 93.8524 613.919 91.7288C614.416 89.5857 615.216 87.757 616.318 86.2427C617.401 84.7296 618.769 83.5516 620.42 82.7086C622.09 81.845 624.007 81.3481 626.171 81.2178C628.355 81.0864 630.317 81.3498 632.059 82.008C633.819 82.6456 635.338 83.65 636.614 85.0211C637.87 86.3934 638.874 88.1135 639.624 90.1815C640.374 92.2301 640.83 94.6093 640.993 97.3192L641.594 107.291ZM619.391 107.542L635.206 93.8227C634.966 92.4284 634.609 91.2074 634.135 90.1598C633.679 89.0915 633.088 88.2172 632.363 87.5369C631.655 86.836 630.803 86.3296 629.806 86.0179C628.828 85.7049 627.706 85.5866 626.439 85.6629C625.152 85.7403 624.024 86.0137 623.054 86.483C622.103 86.9316 621.309 87.5566 620.672 88.358C619.911 89.3626 619.371 90.6375 619.053 92.1829C618.754 93.7075 618.664 95.4641 618.783 97.4527L619.213 104.588C619.242 105.076 619.272 105.563 619.301 106.05C619.33 106.538 619.36 107.035 619.391 107.542ZM636.223 108.759L635.86 102.735C635.843 102.443 635.809 101.887 635.76 101.068C635.709 100.23 635.668 99.5377 635.635 98.9918L619.845 112.651C620.106 114.063 620.494 115.302 621.008 116.367C621.521 117.412 622.159 118.264 622.923 118.922C623.625 119.545 624.455 120.004 625.412 120.299C626.368 120.574 627.431 120.676 628.601 120.606C629.829 120.532 630.909 120.281 631.842 119.853C632.775 119.425 633.552 118.84 634.173 118.099C635.012 117.089 635.59 115.802 635.907 114.237C636.243 112.671 636.348 110.845 636.223 108.759Z" fill="#62C976"/>
<path d="M583.072 218.274C581.762 218.353 580.63 218.181 579.675 217.757C578.719 217.334 577.855 216.689 577.082 215.822L578.523 214.196C579.094 214.899 579.734 215.422 580.444 215.764C581.153 216.09 582.011 216.222 583.017 216.162C584.007 216.102 584.785 215.839 585.35 215.372C585.931 214.904 586.198 214.295 586.153 213.545C586.116 212.922 585.942 212.427 585.631 212.061C585.321 211.695 584.911 211.407 584.401 211.198C583.907 210.971 583.366 210.779 582.78 210.622C582.192 210.449 581.604 210.268 581.016 210.079C580.426 209.874 579.882 209.618 579.383 209.312C578.882 208.989 578.464 208.558 578.127 208.017C577.805 207.475 577.619 206.781 577.568 205.935C577.512 204.992 577.687 204.18 578.095 203.499C578.518 202.8 579.11 202.251 579.871 201.853C580.648 201.437 581.531 201.2 582.521 201.14C583.607 201.075 584.595 201.232 585.483 201.611C586.37 201.975 587.106 202.483 587.691 203.137L586.25 204.763C585.72 204.218 585.159 203.819 584.567 203.566C583.991 203.312 583.335 203.207 582.6 203.251C581.706 203.305 581.007 203.548 580.504 203.979C580 204.394 579.769 204.953 579.812 205.655C579.845 206.214 580.017 206.661 580.325 206.995C580.649 207.312 581.057 207.576 581.551 207.787C582.045 207.997 582.585 208.189 583.172 208.362C583.775 208.518 584.371 208.699 584.96 208.904C585.55 209.109 586.095 209.381 586.596 209.719C587.097 210.058 587.51 210.514 587.833 211.087C588.171 211.644 588.366 212.361 588.419 213.24C588.507 214.709 588.066 215.89 587.093 216.782C586.137 217.673 584.797 218.17 583.072 218.274ZM591.722 217.513L590.721 200.887L592.973 200.752L593.974 217.378L591.722 217.513ZM593.255 217.421L593.131 215.361L602.666 214.787L602.79 216.847L593.255 217.421ZM592.803 209.898L592.684 207.934L601.429 207.408L601.547 209.372L592.803 209.898ZM592.379 202.855L592.255 200.795L601.67 200.228L601.794 202.289L592.379 202.855ZM613.087 216.468C611.905 216.539 610.79 216.389 609.742 216.02C608.693 215.634 607.761 215.073 606.948 214.337C606.133 213.584 605.479 212.702 604.985 211.69C604.507 210.677 604.233 209.579 604.162 208.397C604.09 207.199 604.23 206.077 604.584 205.03C604.953 203.966 605.489 203.02 606.193 202.192C606.912 201.363 607.762 200.703 608.742 200.211C609.738 199.719 610.827 199.437 612.009 199.365C613.191 199.294 614.298 199.444 615.33 199.815C616.378 200.184 617.309 200.737 618.123 201.474C618.937 202.21 619.59 203.085 620.084 204.097C620.578 205.109 620.861 206.214 620.933 207.412C621.004 208.594 620.855 209.717 620.486 210.781C620.118 211.845 619.574 212.791 618.854 213.62C618.15 214.448 617.301 215.116 616.306 215.625C615.326 216.116 614.253 216.397 613.087 216.468ZM612.909 214.314C614.107 214.242 615.137 213.908 615.998 213.311C616.875 212.697 617.548 211.895 618.017 210.905C618.486 209.899 618.683 208.774 618.608 207.528C618.552 206.601 618.349 205.764 618 205.016C617.649 204.251 617.185 203.598 616.607 203.056C616.03 202.514 615.364 202.113 614.611 201.854C613.858 201.578 613.033 201.468 612.139 201.522C610.957 201.593 609.927 201.927 609.05 202.525C608.188 203.122 607.522 203.915 607.053 204.905C606.6 205.894 606.41 207.012 606.485 208.257C606.541 209.184 606.737 210.038 607.072 210.819C607.423 211.583 607.879 212.237 608.441 212.78C609.017 213.306 609.683 213.707 610.437 213.982C611.206 214.257 612.031 214.367 612.909 214.314Z" fill="#4B8879"/>
</g>
<defs>
<filter id="filter0_d_1289_805" x="0.746094" y="0.746094" width="229.781" height="244.721" filterUnits="userSpaceOnUse" color-interpolation-filters="sRGB">
<feFlood flood-opacity="0" result="BackgroundImageFix"/>
<feColorMatrix in="SourceAlpha" type="matrix" values="0 0 0 0 0 0 0 0 0 0 0 0 0 0 0 0 0 0 127 0" result="hardAlpha"/>
<feOffset dy="1"/>
<feGaussianBlur stdDeviation="1"/>
<feComposite in2="hardAlpha" operator="out"/>
<feColorMatrix type="matrix" values="0 0 0 0 0 0 0 0 0 0 0 0 0 0 0 0 0 0 0.25 0"/>
<feBlend mode="normal" in2="BackgroundImageFix" result="effect1_dropShadow_1289_805"/>
<feBlend mode="normal" in="SourceGraphic" in2="effect1_dropShadow_1289_805" result="shape"/>
</filter>
<filter id="filter1_d_1289_805" x="248.414" y="141.415" width="224.098" height="239.522" filterUnits="userSpaceOnUse" color-interpolation-filters="sRGB">
<feFlood flood-opacity="0" result="BackgroundImageFix"/>
<feColorMatrix in="SourceAlpha" type="matrix" values="0 0 0 0 0 0 0 0 0 0 0 0 0 0 0 0 0 0 127 0" result="hardAlpha"/>
<feOffset dy="1"/>
<feGaussianBlur stdDeviation="1"/>
<feComposite in2="hardAlpha" operator="out"/>
<feColorMatrix type="matrix" values="0 0 0 0 0 0 0 0 0 0 0 0 0 0 0 0 0 0 0.25 0"/>
<feBlend mode="normal" in2="BackgroundImageFix" result="effect1_dropShadow_1289_805"/>
<feBlend mode="normal" in="SourceGraphic" in2="effect1_dropShadow_1289_805" result="shape"/>
</filter>
<filter id="filter2_d_1289_805" x="479.699" y="0.699219" width="228.977" height="243.986" filterUnits="userSpaceOnUse" color-interpolation-filters="sRGB">
<feFlood flood-opacity="0" result="BackgroundImageFix"/>
<feColorMatrix in="SourceAlpha" type="matrix" values="0 0 0 0 0 0 0 0 0 0 0 0 0 0 0 0 0 0 127 0" result="hardAlpha"/>
<feOffset dy="1"/>
<feGaussianBlur stdDeviation="1"/>
<feComposite in2="hardAlpha" operator="out"/>
<feColorMatrix type="matrix" values="0 0 0 0 0 0 0 0 0 0 0 0 0 0 0 0 0 0 0.25 0"/>
<feBlend mode="normal" in2="BackgroundImageFix" result="effect1_dropShadow_1289_805"/>
<feBlend mode="normal" in="SourceGraphic" in2="effect1_dropShadow_1289_805" result="shape"/>
</filter>
</defs>
</svg>
